<svg width="553" height="312" viewBox="0 0 553 312" fill="none" xmlns="http://www.w3.org/2000/svg">
<rect width="553" height="312" fill="#E5E5E5"/>
<g id="hoja 1" clip-path="url(#clip0)">
<g id="hoja1">
<path id="shape0" d="M18.6864 246.307L-53.2464 375.773" stroke="#32882A" stroke-width="17.568" stroke-linecap="square" stroke-linejoin="bevel"/>
<path id="shape09" d="M26.496 244.224L-43.2804 370.207" stroke="#53C848" stroke-width="6.336" stroke-linecap="square" stroke-linejoin="bevel"/>
</g>
<g id="hoja2">
<path id="shape0_2" d="M81.1242 221.842L9.19142 351.308" stroke="#32882A" stroke-width="17.568" stroke-linecap="square" stroke-linejoin="bevel"/>
<path id="shape010" d="M88.824 219.677L19.1664 346.054" stroke="#53C848" stroke-width="6.336" stroke-linecap="square" stroke-linejoin="bevel"/>
</g>
<g id="hoja3">
<path id="shape01" d="M146.304 198.144L76.0074 317.899" stroke="#32882A" stroke-width="17.568" stroke-linecap="square" stroke-linejoin="bevel"/>
<path id="shape011" d="M154.01 196.146L80.64 321.984" stroke="#53C848" stroke-width="6.336" stroke-linecap="square" stroke-linejoin="bevel"/>
</g>
<g id="hoja4">
<path id="shape02" d="M211.968 179.712L135.911 315.595" stroke="#32882A" stroke-width="17.568" stroke-linecap="square" stroke-linejoin="bevel"/>
<path id="shape012" d="M219.6 177.552L144.956 311.015" stroke="#53C848" stroke-width="6.336" stroke-linecap="square" stroke-linejoin="bevel"/>
</g>
<g id="hoja5">
<path id="shape07" d="M277.056 168.192L194.811 309.051" stroke="#32882A" stroke-width="17.568" stroke-linecap="square" stroke-linejoin="bevel"/>
<path id="shape013" d="M284.688 166.176L200.388 311.04" stroke="#53C848" stroke-width="6.336" stroke-linecap="square" stroke-linejoin="bevel"/>
</g>
<g id="hoja6">
<path id="shape08" d="M342.144 155.52L233.053 331.921" stroke="#32882A" stroke-width="17.568" stroke-linecap="square" stroke-linejoin="bevel"/>
<path id="shape014" d="M349.92 153.792L252.864 311.04" stroke="#53C848" stroke-width="6.336" stroke-linecap="square" stroke-linejoin="bevel"/>
</g>
<g id="hoja7">
<path id="shape03" d="M406.656 144L307.559 313.291" stroke="#32882A" stroke-width="17.568" stroke-linecap="square" stroke-linejoin="bevel"/>
<path id="shape015" d="M414.432 141.984L315.111 311.62" stroke="#53C848" stroke-width="6.336" stroke-linecap="square" stroke-linejoin="bevel"/>
</g>
<g id="hoja8">
<path id="shape04" d="M453.888 173.952L352.487 357.067" stroke="#32882A" stroke-width="17.568" stroke-linecap="square" stroke-linejoin="bevel"/>
<path id="shape016" d="M462 172L384.48 311.04" stroke="#53C848" stroke-width="6.336" stroke-linecap="square" stroke-linejoin="bevel"/>
</g>
<g id="hoja9">
<path id="shape05" d="M499.968 216.576L414.695 378.955" stroke="#32882A" stroke-width="17.568" stroke-linecap="square" stroke-linejoin="bevel"/>
<path id="shape017" d="M507.456 214.272L443 339.5" stroke="#53C848" stroke-width="6.336" stroke-linecap="square" stroke-linejoin="bevel"/>
</g>
<g id="hoja10">
<path id="shape06" d="M538.468 261.01L466.535 390.476" stroke="#32882A" stroke-width="17.568" stroke-linecap="square" stroke-linejoin="bevel"/>
<path id="shape018" d="M546.401 258.97L474.802 386.772" stroke="#53C848" stroke-width="6.336" stroke-linecap="square" stroke-linejoin="bevel"/>
</g>
</g>
<defs>
<clipPath id="clip0">
<rect width="552.96" height="311.04" fill="white"/>
</clipPath>
</defs>
</svg>
