<?xml version="1.0" standalone="no"?>
<!DOCTYPE svg PUBLIC "-//W3C//DTD SVG 20010904//EN" "http://www.w3.org/TR/2001/REC-SVG-20010904/DTD/svg10.dtd">
<!-- Created using Krita: https://krita.org -->
<svg xmlns="http://www.w3.org/2000/svg" 
    xmlns:xlink="http://www.w3.org/1999/xlink"
    xmlns:krita="http://krita.org/namespaces/svg/krita"
    xmlns:sodipodi="http://sodipodi.sourceforge.net/DTD/sodipodi-0.dtd"
    width="552.96pt"
    height="311.04pt"
    viewBox="0 0 552.96 311.04">
<defs/>
<path id="shape0" transform="matrix(0.99780299655916 -0.0662508872209318 0.0662508872209318 0.99780299655916 -61.4890683820005 251.630366835036)" fill="none" stroke="#32882a" stroke-width="17.568" stroke-linecap="square" stroke-linejoin="bevel" d="M80.352 0L0 124.416"/><path id="shape0" transform="matrix(0.99780298722948 -0.0662508866014712 0.0662508866014712 0.99780298722948 0.948740407223575 227.164967155162)" fill="none" stroke="#32882a" stroke-width="17.568" stroke-linecap="square" stroke-linejoin="bevel" d="M80.352 0L0 124.416"/><path id="shape01" transform="matrix(0.99780298722948 -0.0662508866014712 0.0662508866014712 0.99780298722948 68.3994696297359 203.31660849422)" fill="none" stroke="#32882a" stroke-width="17.568" stroke-linecap="square" stroke-linejoin="bevel" d="M78.0761 0L0 114.835"/><path id="shape02" transform="matrix(0.99780298722948 -0.0662508866014712 0.0662508866014712 0.99780298722948 127.262604483442 185.33616391284)" fill="none" stroke="#32882a" stroke-width="17.568" stroke-linecap="square" stroke-linejoin="bevel" d="M84.8919 0L0 130.546"/><path id="shape03" transform="matrix(0.99780298722948 -0.0662508866014712 0.0662508866014712 0.99780298722948 296.803284200587 151.293864530811)" fill="none" stroke="#32882a" stroke-width="17.568" stroke-linecap="square" stroke-linejoin="bevel" d="M110.095 0L0 162.354"/><path id="shape04" transform="matrix(0.99780298722948 -0.0662508866014712 0.0662508866014712 0.99780298722948 340.827556737074 181.458847244988)" fill="none" stroke="#32882a" stroke-width="17.568" stroke-linecap="square" stroke-linejoin="bevel" d="M113.309 0L0 175.995"/><path id="shape05" transform="matrix(0.99780298722948 -0.0662508866014712 0.0662508866014712 0.99780298722948 404.335528242653 222.925686383888)" fill="none" stroke="#32882a" stroke-width="17.568" stroke-linecap="square" stroke-linejoin="bevel" d="M95.843 0L0 156.373"/><path id="shape06" transform="matrix(0.99780298722948 -0.0662508866014712 0.0662508866014712 0.99780298722948 458.292740407224 266.332967155163)" fill="none" stroke="#32882a" stroke-width="17.568" stroke-linecap="square" stroke-linejoin="bevel" d="M80.352 0L0 124.416"/><path id="shape07" transform="matrix(0.997802997070736 -0.0662508872548987 0.0662508872548987 0.997802997070736 185.860218991495 174.247104488014)" fill="none" stroke="#32882a" stroke-width="17.568" stroke-linecap="square" stroke-linejoin="bevel" d="M91.3966 0L0 135.101"/><path id="shape08" transform="matrix(0.997802955348657 -0.0662508844846877 0.0662508844846877 0.997802955348657 221.87115929231 163.505727075328)" fill="none" stroke="#32882a" stroke-width="17.568" stroke-linecap="square" stroke-linejoin="bevel" d="M120.538 0L0 168.786"/><path id="shape09" transform="matrix(0.997771435895011 -0.0667238813776835 0.0667238813776835 0.997771435895011 -51.3570939501804 249.430263096676)" fill="none" stroke="#53c848" stroke-width="6.336" stroke-linecap="square" stroke-linejoin="bevel" d="M78.027 0L0 121.046"/><path id="shape010" transform="matrix(0.997771388789296 -0.0667238782275874 0.0667238782275874 0.997771388789296 10.7011052088468 225.061728738836)" fill="none" stroke="#53c848" stroke-width="6.336" stroke-linecap="square" stroke-linejoin="bevel" d="M78.027 0L0 121.046"/><path id="shape011" transform="matrix(0.997771388789296 -0.0667238782275873 0.0667238782275873 0.997771388789296 72.5867913784745 201.558428765935)" fill="none" stroke="#53c848" stroke-width="6.336" stroke-linecap="square" stroke-linejoin="bevel" d="M81.3866 0L0 120.695"/><path id="shape012" transform="matrix(0.997771388789296 -0.0667238782275874 0.0667238782275874 0.997771388789296 136.023023826604 183.141035768595)" fill="none" stroke="#53c848" stroke-width="6.336" stroke-linecap="square" stroke-linejoin="bevel" d="M83.7637 0L0 128.185"/><path id="shape013" transform="matrix(0.997771388789296 -0.0667238782275874 0.0667238782275874 0.997771388789296 191.119365075865 172.433207084456)" fill="none" stroke="#53c848" stroke-width="6.336" stroke-linecap="square" stroke-linejoin="bevel" d="M93.7776 0L0 138.916"/><path id="shape014" transform="matrix(0.997771388789296 -0.0667238782275873 0.0667238782275873 0.997771388789296 242.827285499567 160.953601667151)" fill="none" stroke="#53c848" stroke-width="6.336" stroke-linecap="square" stroke-linejoin="bevel" d="M107.332 0L0 150.422"/><path id="shape015" transform="matrix(0.997771388789296 -0.0667238782275874 0.0667238782275874 0.997771388789296 304.259423257191 149.3515610237)" fill="none" stroke="#53c848" stroke-width="6.336" stroke-linecap="square" stroke-linejoin="bevel" d="M110.419 0L0 162.05"/><path id="shape016" transform="matrix(0.997771388789296 -0.0667238782275873 0.0667238782275873 0.997771388789296 375.542298200659 177.387949582671)" fill="none" stroke="#53c848" stroke-width="6.336" stroke-linecap="square" stroke-linejoin="bevel" d="M86.0254 0L0 133.951"/><path id="shape017" transform="matrix(0.997771388789296 -0.0667238782275875 0.0667238782275875 0.997771388789296 433.51460469765 219.216676417429)" fill="none" stroke="#53c848" stroke-width="6.336" stroke-linecap="square" stroke-linejoin="bevel" d="M74.1065 0L0 120.731"/><path id="shape018" transform="matrix(0.997771388789296 -0.0667238782275876 0.0667238782275876 0.997771388789296 466.273172966037 264.246774983977)" fill="none" stroke="#53c848" stroke-width="6.336" stroke-linecap="square" stroke-linejoin="bevel" d="M79.953 0L0 122.699"/>
</svg>
